<?xml version="1.0" encoding="UTF-8"?>
<svg xmlns="http://www.w3.org/2000/svg" xmlns:xlink="http://www.w3.org/1999/xlink" width="430px" height="192px" viewBox="0 0 215 96" version="1.1">
<g id="surface1">
<path style="fill-rule:nonzero;fill:rgb(100%,100%,100%);fill-opacity:1;stroke-width:4;stroke-linecap:round;stroke-linejoin:round;stroke:rgb(47.058824%,83.529412%,95.686275%);stroke-opacity:1;stroke-miterlimit:10;" d="M 418.101562 69.320312 C 416.351562 62.882812 412.195312 57.507812 406.40625 54.1875 C 402.625 52.023438 398.335938 50.882812 393.992188 50.882812 C 385.09375 50.882812 376.820312 55.648438 372.359375 63.328125 C 369.257812 53.273438 360.195312 46.265625 349.671875 45.765625 L 349.992188 39.585938 C 350.34375 32.921875 348.070312 26.515625 343.601562 21.554688 C 339.132812 16.59375 333 13.664062 326.359375 13.320312 C 312.507812 12.578125 300.78125 23.242188 300.0625 36.984375 L 299.890625 40.234375 C 298.84375 40.164062 297.796875 40.125 296.757812 40.125 C 285.820312 40.125 275.476562 43.84375 266.882812 50.257812 C 265.796875 37.507812 254.9375 27.367188 242.015625 27.367188 C 241.773438 27.367188 241.53125 27.375 241.335938 27.375 C 234.664062 27.546875 228.453125 30.3125 223.851562 35.148438 C 220.46875 38.71875 218.257812 43.09375 217.390625 47.820312 C 211.070312 43.953125 203.921875 41.484375 196.296875 40.8125 L 196.632812 37.570312 C 198.046875 23.859375 188.039062 11.546875 174.328125 10.132812 C 173.476562 10.046875 172.609375 10 171.75 10 C 158.898438 10 148.210938 19.640625 146.890625 32.429688 L 145.867188 42.367188 C 141.9375 41.148438 128.546875 38.765625 117.070312 51.039062 C 97.976562 33.867188 84.320312 47.484375 80.414062 47.28125 C 73.226562 31.617188 64.476562 25.515625 46.28125 25.515625 C 44.625 25.515625 42.953125 25.554688 41.328125 25.882812 C 34.78125 27.203125 29.140625 30.9375 25.445312 36.5 C 21.75 42.0625 20.445312 48.695312 21.765625 55.242188 L 21.875 55.757812 C 12.914062 61.296875 8.09375 72.164062 10.710938 82.9375 C 13.132812 92.914062 21.273438 100.21875 31.15625 101.734375 L 38.421875 137.742188 C 40.773438 149.359375 51.070312 157.789062 62.921875 157.789062 C 64.578125 157.789062 66.25 157.625 67.882812 157.296875 C 77.0625 155.4375 84.046875 148.742188 86.734375 140.398438 C 95.421875 147.851562 105.789062 151.757812 117.171875 151.757812 C 127.375 151.757812 137.171875 148.507812 145.671875 142.328125 C 149.609375 145.953125 154.585938 148.21875 160.007812 148.773438 C 164.070312 149.195312 168.171875 148.585938 171.867188 147.101562 C 178.335938 150.179688 185.34375 151.765625 192.601562 151.765625 C 193.1875 151.765625 193.789062 151.757812 194.390625 151.734375 C 203.070312 151.414062 211.257812 148.8125 218.445312 144.242188 C 221.46875 156.359375 232.4375 165.367188 245.476562 165.367188 C 257.984375 165.367188 268.59375 157.085938 272.109375 145.71875 C 275.992188 147.703125 280.1875 149.1875 284.640625 150.054688 C 287.453125 150.601562 290.445312 150.867188 293.789062 150.867188 C 298.382812 150.867188 302.976562 150.203125 307.414062 148.90625 C 310.882812 151.015625 314.867188 152.289062 319.070312 152.507812 C 319.507812 152.53125 319.945312 152.539062 320.382812 152.539062 C 321.492188 152.539062 322.578125 152.460938 323.65625 152.320312 C 323.265625 155.5 323.492188 158.75 324.351562 161.929688 C 326.109375 168.375 330.265625 173.75 336.054688 177.0625 C 339.828125 179.226562 344.125 180.375 348.46875 180.375 C 357.414062 180.375 365.734375 175.554688 370.171875 167.789062 L 415.671875 88.304688 C 418.992188 82.507812 419.859375 75.765625 418.101562 69.320312 Z M 418.101562 69.320312 " transform="matrix(0.5,0,0,0.5,0,0)"/>
<path style=" stroke:none;fill-rule:nonzero;fill:rgb(100%,100%,100%);fill-opacity:1;" d="M 158.824219 48.128906 C 158.824219 40.566406 153.527344 34.433594 146.988281 34.433594 C 140.453125 34.433594 135.15625 40.566406 135.15625 48.128906 C 135.15625 55.691406 140.453125 61.824219 146.988281 61.824219 C 153.527344 61.824219 158.824219 55.691406 158.824219 48.128906 Z M 158.824219 48.128906 "/>
<path style=" stroke:none;fill-rule:nonzero;fill:rgb(0%,0%,0%);fill-opacity:1;" d="M 150.238281 51.828125 C 150.238281 53.679688 148.738281 55.179688 146.886719 55.179688 C 145.035156 55.179688 143.535156 53.679688 143.535156 51.828125 C 143.535156 49.976562 145.035156 48.476562 146.886719 48.476562 C 148.738281 48.476562 150.238281 49.976562 150.238281 51.828125 Z M 150.238281 51.828125 "/>
<path style=" stroke:none;fill-rule:nonzero;fill:rgb(100%,100%,100%);fill-opacity:1;" d="M 108.324219 48.628906 C 108.324219 41.066406 103.027344 34.933594 96.488281 34.933594 C 89.953125 34.933594 84.65625 41.066406 84.65625 48.628906 C 84.65625 56.191406 89.953125 62.324219 96.488281 62.324219 C 103.027344 62.324219 108.324219 56.191406 108.324219 48.628906 Z M 108.324219 48.628906 "/>
<path style=" stroke:none;fill-rule:nonzero;fill:rgb(0%,0%,0%);fill-opacity:1;" d="M 100.1875 52.253906 C 100.1875 54.050781 98.730469 55.507812 96.929688 55.507812 C 95.132812 55.507812 93.675781 54.050781 93.675781 52.253906 C 93.675781 50.457031 95.132812 48.996094 96.929688 48.996094 C 98.730469 48.996094 100.1875 50.457031 100.1875 52.253906 Z M 100.1875 52.253906 "/>
<path style=" stroke:none;fill-rule:nonzero;fill:rgb(41.176471%,81.568627%,95.294118%);fill-opacity:1;" d="M 70.636719 29 L 69.804688 29 C 66.867188 29 64.5 31.097656 64.5 34.183594 L 64.5 52.464844 C 64.5 53.199219 64.414062 54.027344 64.011719 54.925781 C 62.191406 57.832031 60.273438 58.277344 58.714844 58.296875 C 57.664062 58.222656 57.15625 58.113281 56.957031 58.0625 C 53.835938 56.878906 52.5 54.933594 52.5 51.582031 L 52.5 33.804688 C 52.5 32.046875 51.472656 29.796875 48.496094 29.050781 L 48.046875 29 L 47.554688 29 C 44.792969 29 42.71875 30.96875 42.5 33.890625 L 42.5 51.960938 C 42.5 55.632812 43.578125 58.976562 45.726562 61.898438 L 45.792969 61.992188 L 45.867188 62.082031 C 49.339844 66.261719 53.617188 68.378906 58.585938 68.378906 C 62.429688 68.378906 65.984375 67.085938 69.160156 64.535156 L 69.3125 64.414062 L 69.542969 64.277344 C 73.101562 60.800781 75 56.886719 75 52.652344 L 75 33.867188 C 75 31.394531 73.191406 29.476562 70.636719 29 Z M 70.636719 29 "/>
<path style=" stroke:none;fill-rule:nonzero;fill:rgb(41.176471%,81.568627%,95.294118%);fill-opacity:1;" d="M 39.386719 33.191406 C 38.734375 30.507812 36.03125 28.863281 33.347656 29.515625 L 29.320312 30.492188 L 28.039062 24.144531 C 27.492188 21.4375 24.851562 19.683594 22.148438 20.230469 C 19.441406 20.777344 17.6875 23.414062 18.234375 26.121094 L 19.59375 32.859375 L 16.320312 33.652344 C 13.636719 34.304688 11.992188 37.007812 12.644531 39.691406 C 13.199219 41.980469 15.246094 43.511719 17.496094 43.511719 C 17.886719 43.511719 18.285156 43.464844 18.683594 43.371094 L 21.574219 42.667969 L 26.5625 67.386719 C 27.042969 69.757812 29.128906 71.398438 31.460938 71.398438 C 31.789062 71.398438 32.121094 71.363281 32.453125 71.296875 C 35.160156 70.75 36.914062 68.113281 36.367188 65.40625 L 31.300781 40.304688 L 35.707031 39.230469 C 38.390625 38.578125 40.039062 35.875 39.386719 33.191406 Z M 39.386719 33.191406 "/>
<path style=" stroke:none;fill-rule:nonzero;fill:rgb(20%,20%,20%);fill-opacity:1;" d="M 114.269531 47.421875 C 113.847656 36.199219 105.476562 27.453125 95.398438 27.828125 C 93.398438 27.902344 91.488281 28.34375 89.710938 29.085938 L 90.855469 18.015625 C 91.136719 15.265625 89.140625 12.808594 86.394531 12.527344 C 83.648438 12.242188 81.191406 14.238281 80.90625 16.988281 L 76.316406 61.441406 C 76.03125 64.1875 78.03125 66.644531 80.777344 66.925781 C 80.953125 66.945312 81.125 66.953125 81.296875 66.953125 C 83.089844 66.953125 84.699219 65.988281 85.582031 64.515625 C 88.59375 66.953125 92.296875 68.386719 96.300781 68.386719 C 96.503906 68.386719 96.710938 68.382812 96.914062 68.375 C 101.898438 68.1875 106.457031 65.804688 109.75 61.667969 C 112.863281 57.753906 114.46875 52.695312 114.269531 47.421875 Z M 101.921875 55.441406 C 100.476562 57.261719 98.566406 58.304688 96.542969 58.378906 C 92.085938 58.5625 88.246094 54.007812 88.039062 48.402344 C 87.824219 42.734375 91.296875 37.988281 95.773438 37.820312 C 95.851562 37.816406 95.933594 37.816406 96.015625 37.816406 C 100.363281 37.816406 104.070312 42.292969 104.277344 47.796875 C 104.382812 50.683594 103.550781 53.398438 101.921875 55.441406 Z M 101.921875 55.441406 "/>
<path style=" stroke:none;fill-rule:nonzero;fill:rgb(20%,20%,20%);fill-opacity:1;" d="M 162.773438 14.148438 C 160.03125 14 157.664062 16.125 157.523438 18.882812 L 156.941406 29.988281 C 155.300781 28.984375 153.484375 28.253906 151.515625 27.871094 C 150.484375 27.667969 149.429688 27.5625 148.378906 27.5625 C 139.53125 27.5625 131.738281 34.597656 129.847656 44.304688 C 127.707031 55.285156 133.949219 65.785156 143.757812 67.699219 C 144.789062 67.898438 145.84375 68 146.894531 68 C 149.96875 68 152.910156 67.121094 155.527344 65.609375 C 156.21875 67.386719 157.898438 68.675781 159.925781 68.78125 C 160.015625 68.785156 160.101562 68.777344 160.191406 68.777344 C 162.832031 68.777344 165.039062 66.703125 165.179688 64.035156 L 167.507812 19.402344 C 167.652344 16.648438 165.53125 14.292969 162.773438 14.148438 Z M 146.894531 58.003906 C 146.484375 58.003906 146.070312 57.964844 145.667969 57.886719 C 141.273438 57.027344 138.578125 51.800781 139.660156 46.234375 C 140.625 41.296875 144.371094 37.570312 148.378906 37.570312 C 148.789062 37.570312 149.199219 37.613281 149.605469 37.691406 C 154 38.546875 156.695312 43.773438 155.613281 49.34375 C 154.648438 54.28125 150.902344 58.003906 146.894531 58.003906 Z M 146.894531 58.003906 "/>
<path style=" stroke:none;fill-rule:nonzero;fill:rgb(20%,20%,20%);fill-opacity:1;" d="M 121.738281 60.433594 C 121.78125 60.433594 121.824219 60.433594 121.867188 60.433594 C 124.628906 60.363281 126.808594 58.066406 126.738281 55.308594 L 125.988281 26.058594 C 125.917969 23.296875 123.605469 21.109375 120.863281 21.1875 C 118.101562 21.257812 115.921875 23.554688 115.992188 26.3125 L 116.742188 55.5625 C 116.8125 58.28125 119.035156 60.433594 121.738281 60.433594 Z M 121.738281 60.433594 "/>
<path style=" stroke:none;fill-rule:nonzero;fill:rgb(20%,20%,20%);fill-opacity:1;" d="M 122.738281 62.324219 C 119.191406 62.324219 116.308594 65.207031 116.308594 68.753906 C 116.308594 72.300781 119.195312 75.183594 122.738281 75.183594 C 126.285156 75.183594 129.171875 72.300781 129.171875 68.753906 C 129.171875 65.207031 126.285156 62.324219 122.738281 62.324219 Z M 122.738281 62.324219 "/>
<path style=" stroke:none;fill-rule:nonzero;fill:rgb(20%,20%,20%);fill-opacity:1;" d="M 199.472656 33.601562 C 197.078125 32.230469 194.023438 33.0625 192.652344 35.457031 L 183.429688 51.5625 L 179.089844 34.152344 C 178.421875 31.472656 175.707031 29.839844 173.03125 30.507812 C 170.351562 31.175781 168.71875 33.890625 169.386719 36.570312 L 175.886719 62.644531 C 176 63.089844 176.167969 63.5 176.378906 63.882812 L 169.898438 75.203125 C 168.527344 77.597656 169.359375 80.652344 171.753906 82.023438 C 172.539062 82.472656 173.390625 82.6875 174.234375 82.6875 C 175.96875 82.6875 177.65625 81.78125 178.578125 80.167969 L 201.328125 40.425781 C 202.699219 38.03125 201.871094 34.972656 199.472656 33.601562 Z M 199.472656 33.601562 "/>
</g>
</svg>
